<svg width="152" height="134" viewBox="0 0 152 134" fill="none" xmlns="http://www.w3.org/2000/svg">
<path d="M108.37 2.00781C-79.1013 2.00781 90.1649 2.00781 15.2329 2.00781C17.0779 2.00733 18.905 2.37038 20.6096 3.07622C22.3143 3.78205 23.8632 4.81685 25.1678 6.12148C26.4725 7.4261 27.5073 8.975 28.2131 10.6797C28.9189 12.3843 29.282 14.2114 29.2815 16.0564C29.2815 145.96 29.2264 106.965 29.2264 118.263C29.2264 120.108 29.5898 121.935 30.2958 123.639C31.0018 125.344 32.0366 126.892 33.3412 128.197C34.6457 129.501 36.1944 130.536 37.8989 131.242C39.6033 131.948 41.4301 132.312 43.275 132.312C45.1199 132.312 46.9467 131.948 48.6512 131.242C50.3557 130.536 51.9044 129.501 53.2089 128.197C54.5134 126.892 55.5482 125.344 56.2542 123.639C56.9603 121.935 57.3236 120.108 57.3236 118.263V113.93C57.3603 113.912 56.7949 113.93 122.419 113.93V16.0674C122.42 14.2216 122.058 12.3936 121.352 10.6879C120.647 8.98215 119.612 7.43215 118.308 6.12645C117.003 4.82075 115.454 3.78495 113.749 3.07825C112.044 2.37156 110.216 2.00781 108.37 2.00781Z" fill="#F5F5F5"/>
<path style="mix-blend-mode:multiply" d="M86.482 40.5074C86.0053 44.7768 84.3918 48.84 81.8097 52.2732C79.2276 55.7065 75.7716 58.384 71.8022 60.0265C67.8327 61.6689 63.4952 62.2162 59.2422 61.6111C54.9892 61.0061 50.9764 59.2709 47.6225 56.5866L43.2603 60.9487C43.551 61.9214 43.5728 62.9547 43.3232 63.9387C43.0737 64.9228 42.5621 65.8208 41.843 66.5373L29.2888 79.0915V84.4083L41.843 71.8542C42.5601 71.1363 43.0703 70.2383 43.3197 69.2547C43.5692 68.2711 43.5486 67.2385 43.2603 66.2656L47.6225 61.9034C51.33 64.8703 55.8341 66.6711 60.5651 67.078C65.2961 67.4849 70.0415 66.4796 74.2012 64.1893C78.3608 61.899 81.7478 58.4266 83.9338 54.2112C86.1198 49.9958 87.0065 45.2268 86.482 40.5074Z" fill="url(#paint0_linear_488_82)"/>
<path d="M1.19531 20.4002V16.0674C1.19531 12.3415 2.67543 8.76819 5.31005 6.13357C7.94467 3.49894 11.518 2.01883 15.2439 2.01883C18.9698 2.01883 22.5431 3.49894 25.1778 6.13357C27.8124 8.76819 29.2925 12.3415 29.2925 16.0674V20.4002H1.19531Z" fill="url(#paint1_linear_488_82)"/>
<path d="M57.3309 113.938V118.27C57.3314 120.115 56.9684 121.942 56.2625 123.647C55.5567 125.352 54.5219 126.901 53.2173 128.205C51.9126 129.51 50.3638 130.545 48.6591 131.251C46.9544 131.956 45.1274 132.319 43.2823 132.319C135.994 132.319 136.203 132.356 136.203 132.319C139.929 132.319 143.502 130.839 146.137 128.204C148.771 125.57 150.251 121.996 150.251 118.27V113.938H57.3309Z" fill="url(#paint2_linear_488_82)"/>
<path d="M30.3941 21.5024H0.09375V16.068C0.0937501 12.0499 1.68992 8.19641 4.53113 5.3552C7.37233 2.514 11.2258 0.917824 15.2439 0.917824C19.262 0.917824 23.1155 2.514 25.9567 5.3552C28.7979 8.19641 30.3941 12.0499 30.3941 16.068V21.5024ZM2.29688 19.2992H28.1909V16.068C28.1909 12.6342 26.8269 9.34109 24.3988 6.91305C21.9708 4.48501 18.6777 3.12095 15.2439 3.12095C11.8101 3.12095 8.51701 4.48501 6.08897 6.91305C3.66093 9.34109 2.29688 12.6342 2.29688 16.068V19.2992Z" fill="#5E6175"/>
<path d="M43.286 133.421V131.217C46.7179 131.213 50.0079 129.847 52.4343 127.42C54.8607 124.993 56.2255 121.702 56.2294 118.27V112.836H151.357V118.27C151.352 122.287 149.754 126.138 146.914 128.978C144.074 131.818 140.223 133.416 136.206 133.421H43.286ZM51.1475 131.217H136.206C139.639 131.214 142.93 129.848 145.357 127.421C147.784 124.994 149.15 121.703 149.154 118.27V115.039H58.4325V118.27C58.4322 120.872 57.7618 123.43 56.4858 125.698C55.2099 127.966 53.3714 129.867 51.1475 131.217Z" fill="#5E6175"/>
<path d="M43.286 133.421C39.2694 133.416 35.4187 131.818 32.5786 128.978C29.7384 126.138 28.1407 122.287 28.1358 118.27C28.1358 118.234 28.1909 118.212 28.1909 16.0638C28.1929 14.3626 27.8593 12.6778 27.2095 11.1057C26.5596 9.53365 25.6061 8.10513 24.4036 6.90192C23.2011 5.6987 21.7731 4.74441 20.2013 4.09364C18.6296 3.44288 16.945 3.10841 15.2439 3.10938V0.90625C113.97 0.90625 109.472 0.90625 109.472 0.957656C113.287 1.2393 116.856 2.95305 119.461 5.75529C122.067 8.55752 123.517 12.2411 123.52 16.0674V115.039H58.4325V118.27C58.4276 122.286 56.8304 126.136 53.991 128.977C51.1517 131.817 47.3019 133.415 43.286 133.421ZM30.339 118.27C30.339 119.971 30.6739 121.654 31.3245 123.225C31.9752 124.796 32.9288 126.223 34.1311 127.425C35.3333 128.628 36.7606 129.581 38.3314 130.232C39.9022 130.883 41.5858 131.217 43.286 131.217C44.9862 131.217 46.6698 130.883 48.2406 130.232C49.8114 129.581 51.2387 128.628 52.4409 127.425C53.6432 126.223 54.5968 124.796 55.2475 123.225C55.8981 121.654 56.233 119.971 56.233 118.27V113.174C57.2979 112.777 57.0702 112.836 57.3346 112.836H121.328V16.0674C121.328 12.6307 119.963 9.33481 117.533 6.9047C115.103 4.4746 111.807 3.10938 108.37 3.10938H23.1237C25.3461 4.46065 27.1827 6.36196 28.4562 8.6298C29.7297 10.8976 30.3971 13.4555 30.394 16.0564C30.394 145.872 30.339 106.693 30.339 118.27Z" fill="#5E6175"/>
<path d="M107.503 71.3842H57.7606V76.0144H107.503V71.3842Z" fill="#DEE1EC"/>
<path d="M71.5264 83.483H44.002V88.1133H71.5264V83.483Z" fill="#DEE1EC"/>
<path d="M107.507 83.483H79.9827V88.1133H107.507V83.483Z" fill="#DEE1EC"/>
<path d="M71.5264 95.5855H44.002V100.216H71.5264V95.5855Z" fill="#DEE1EC"/>
<path d="M68.1014 53.9147C76.9766 50.8882 81.7179 41.2398 78.6914 32.3646C75.6648 23.4893 66.0165 18.748 57.1412 21.7746C48.266 24.8012 43.5247 34.4495 46.5512 43.3247C49.5778 52.2 59.2261 56.9413 68.1014 53.9147Z" fill="#F5F5F5"/>
<path d="M43.2603 60.9487L42.6875 61.5179L41.5419 60.3906L42.5186 59.4176C42.8456 59.8853 43.096 60.4022 43.2603 60.9487Z" fill="#5E6175"/>
<path d="M42.5296 59.4102L41.5419 60.3906L42.6765 61.5252L43.2493 60.9561C43.0932 60.4058 42.8503 59.8839 42.5296 59.4102Z" fill="#DEE1EC"/>
<path d="M16.1141 84.3019C15.4886 83.6765 14.9924 82.934 14.6539 82.1169C14.3154 81.2998 14.1411 80.4239 14.1411 79.5394C14.1411 78.6549 14.3154 77.7791 14.6539 76.962C14.9924 76.1448 15.4886 75.4024 16.1141 74.777L33.0966 57.7946C33.722 57.1692 34.4644 56.6731 35.2816 56.3346C36.0987 55.9961 36.9745 55.8219 37.859 55.8219C38.7434 55.8219 39.6192 55.9961 40.4364 56.3346C41.2535 56.6731 41.996 57.1692 42.6214 57.7946C43.2468 58.42 43.7429 59.1625 44.0814 59.9796C44.4198 60.7968 44.5941 61.6726 44.5941 62.557C44.5941 63.4415 44.4198 64.3173 44.0814 65.1344C43.7429 65.9516 43.2468 66.694 42.6214 67.3194L25.639 84.3019C24.3746 85.5624 22.662 86.2703 20.8766 86.2703C19.0911 86.2703 17.3785 85.5624 16.1141 84.3019ZM37.87 58.0259C37.2753 58.0252 36.6863 58.1419 36.1369 58.3694C35.5874 58.5969 35.0883 58.9306 34.6681 59.3515L17.6747 76.3339C16.8249 77.1842 16.3475 78.3372 16.3475 79.5394C16.3475 80.7416 16.8249 81.8946 17.6747 82.745C18.5249 83.5937 19.6771 84.0703 20.8784 84.0703C22.0797 84.0703 23.2319 83.5937 24.0821 82.745L41.0645 65.7626C41.6964 65.1288 42.1266 64.3223 42.3011 63.4446C42.4755 62.5668 42.3864 61.6571 42.0448 60.8299C41.7033 60.0028 41.1246 59.2952 40.3817 58.7962C39.6388 58.2972 38.7649 58.0292 37.87 58.0259Z" fill="#1DB18E"/>
<path d="M79.6009 54.8204C82.8769 51.5445 85.1352 47.3907 86.1034 42.8601C87.0716 38.3294 86.7084 33.6154 85.0576 29.2866C83.4067 24.9578 80.5387 21.199 76.7995 18.4636C73.0603 15.7282 68.6096 14.133 63.9841 13.8704C59.3586 13.6078 54.7559 14.6891 50.7312 16.9837C46.7064 19.2783 43.4314 22.6884 41.3013 26.8026C39.1711 30.9167 38.2767 35.5593 38.726 40.1704C39.1752 44.7815 40.9489 49.1642 43.8331 52.7898L38.8981 57.7249L42.6912 61.5179L47.6225 56.5866C52.236 60.2788 58.0491 62.1401 63.9492 61.8142C69.8493 61.4883 75.422 58.9982 79.6009 54.8204ZM50.6151 25.8383C52.9891 23.4643 56.0138 21.8477 59.3066 21.1927C62.5994 20.5378 66.0125 20.8739 69.1143 22.1588C72.2161 23.4436 74.8672 25.6193 76.7324 28.4108C78.5976 31.2024 79.5932 34.4843 79.5932 37.8416C79.5932 41.199 78.5976 44.4809 76.7324 47.2724C74.8672 50.064 72.2161 52.2397 69.1143 53.5245C66.0125 54.8093 62.5994 55.1455 59.3066 54.4906C56.0138 53.8356 52.9891 52.219 50.6151 49.845C47.4324 46.6611 45.6445 42.3435 45.6445 37.8416C45.6445 33.3398 47.4324 29.0222 50.6151 25.8383Z" fill="#96EED9"/>
<path d="M42.6912 63.0748L37.3412 57.7248L42.3717 52.6944C39.533 48.8195 37.8651 44.2118 37.5659 39.4176C37.2668 34.6235 38.3489 29.8442 40.6839 25.6464C43.0189 21.4487 46.5089 18.0088 50.7398 15.7346C54.9708 13.4604 59.7653 12.4473 64.5546 12.8156C69.3439 13.1839 73.9271 14.9181 77.7606 17.8125C81.5941 20.7068 84.5171 24.64 86.1828 29.1453C87.8486 33.6507 88.1872 38.5393 87.1585 43.2313C86.1299 47.9234 83.7771 52.2219 80.3793 55.6172C76.1331 59.8797 70.4955 62.4729 64.4958 62.9232C58.496 63.3735 52.5345 61.651 47.6996 58.07L42.6912 63.0748ZM47.5417 55.1105L48.3091 55.7273C52.7073 59.26 58.2561 61.0421 63.8887 60.731C69.5213 60.4199 74.8401 58.0375 78.8224 54.042C81.9483 50.9165 84.1032 46.9533 85.0272 42.6306C85.9512 38.3079 85.6049 33.8101 84.03 29.6798C82.455 25.5495 79.7188 21.963 76.1512 19.3529C72.5836 16.7429 68.3371 15.2207 63.9239 14.97C59.5106 14.7192 55.119 15.7507 51.2788 17.9399C47.4386 20.1291 44.3137 23.3826 42.2812 27.308C40.2486 31.2334 39.3951 35.663 39.8235 40.0625C40.252 44.4621 41.9442 48.6438 44.696 52.1032L45.3092 52.8706L40.4403 57.7248L42.6765 59.961L47.5417 55.1105ZM62.6221 55.9219C58.4381 55.9236 54.3829 54.4745 51.1476 51.8214C47.9123 49.1683 45.6971 45.4754 44.8795 41.372C44.0618 37.2687 44.6923 33.0087 46.6635 29.3181C48.6347 25.6276 51.8246 22.7347 55.6897 21.1324C59.5548 19.5302 63.8559 19.3178 67.8601 20.5314C71.8642 21.745 75.3237 24.3095 77.6489 27.7879C79.9742 31.2663 81.0214 35.4434 80.612 39.6073C80.2026 43.7713 78.362 47.6644 75.4039 50.6234C73.7258 52.3028 71.7333 53.6352 69.5401 54.5443C67.347 55.4535 64.9962 55.9216 62.6221 55.9219ZM62.6221 21.9718C59.4825 21.9718 56.4133 22.9029 53.8029 24.6472C51.1924 26.3916 49.1579 28.8709 47.9565 31.7716C46.7552 34.6723 46.4411 37.8642 47.0539 40.9434C47.6666 44.0227 49.1788 46.8511 51.3991 49.0709C53.6195 51.2907 56.4482 52.8022 59.5276 53.4143C62.607 54.0263 65.7987 53.7115 68.6992 52.5095C71.5996 51.3075 74.0785 49.2724 75.8222 46.6615C77.566 44.0506 78.4964 40.9813 78.4956 37.8416C78.4971 35.7569 78.0875 33.6923 77.2902 31.7659C76.493 29.8396 75.3237 28.0894 73.8494 26.6154C72.3751 25.1414 70.6246 23.9726 68.6981 23.1758C66.7716 22.379 64.7069 21.9699 62.6221 21.9718Z" fill="#1DB18E"/>
<path d="M16.8926 83.5235C15.8374 82.4661 15.2448 81.0333 15.2448 79.5395C15.2448 78.0457 15.8374 76.6129 16.8926 75.5555L33.875 58.5731C34.3982 58.0499 35.0193 57.6349 35.7029 57.3517C36.3864 57.0686 37.1191 56.9228 37.859 56.9228C38.5989 56.9228 39.3315 57.0686 40.0151 57.3517C40.6987 57.6349 41.3198 58.0499 41.843 58.5731C42.3662 59.0962 42.7812 59.7174 43.0643 60.4009C43.3475 61.0845 43.4932 61.8172 43.4932 62.557C43.4932 63.2969 43.3475 64.0296 43.0643 64.7132C42.7812 65.3967 42.3662 66.0178 41.843 66.541L24.8605 83.5235C23.8037 84.5796 22.3707 85.1728 20.8766 85.1728C19.3824 85.1728 17.9495 84.5796 16.8926 83.5235Z" fill="#1DB18E"/>
<defs>
<linearGradient id="paint0_linear_488_82" x1="29.2888" y1="62.4579" x2="86.6288" y2="62.4579" gradientUnits="userSpaceOnUse">
<stop stop-color="#CACFDD"/>
<stop offset="1" stop-color="#EEF0F1"/>
</linearGradient>
<linearGradient id="paint1_linear_488_82" x1="1.19531" y1="11.2095" x2="29.2925" y2="11.2095" gradientUnits="userSpaceOnUse">
<stop stop-color="#CACFDD"/>
<stop offset="1" stop-color="#EEF0F1"/>
</linearGradient>
<linearGradient id="paint2_linear_488_82" x1="43.286" y1="123.136" x2="150.255" y2="123.136" gradientUnits="userSpaceOnUse">
<stop stop-color="#CACFDD"/>
<stop offset="1" stop-color="#EEF0F1"/>
</linearGradient>
</defs>
</svg>
