<svg width="22" height="22" viewBox="0 0 22 22" fill="none" xmlns="http://www.w3.org/2000/svg">
<path d="M0.5 3.555C0.5 2.74476 0.821865 1.96771 1.39479 1.39479C1.96771 0.821865 2.74476 0.5 3.555 0.5H17.775C18.5852 0.5 19.3623 0.821865 19.9352 1.39479C20.5081 1.96771 20.83 2.74476 20.83 3.555V17.775C20.83 18.5852 20.5081 19.3623 19.9352 19.9352C19.3623 20.5081 18.5852 20.83 17.775 20.83H3.555C2.74476 20.83 1.96771 20.5081 1.39479 19.9352C0.821865 19.3623 0.5 18.5852 0.5 17.775V3.555ZM12.35 5.925C12.35 5.47811 12.1725 5.04952 11.8565 4.73353C11.5405 4.41753 11.1119 4.24 10.665 4.24C10.2181 4.24 9.78952 4.41753 9.47353 4.73353C9.15753 5.04952 8.98 5.47811 8.98 5.925V15.405C8.98 15.8519 9.15753 16.2805 9.47353 16.5965C9.78952 16.9125 10.2181 17.09 10.665 17.09C11.1119 17.09 11.5405 16.9125 11.8565 16.5965C12.1725 16.2805 12.35 15.8519 12.35 15.405V5.925ZM7.61 9.48C7.61 9.03311 7.43247 8.60452 7.11648 8.28853C6.80048 7.97253 6.37189 7.795 5.925 7.795C5.47811 7.795 5.04952 7.97253 4.73353 8.28853C4.41753 8.60452 4.24 9.03311 4.24 9.48V15.405C4.24 15.8519 4.41753 16.2805 4.73353 16.5965C5.04952 16.9125 5.47811 17.09 5.925 17.09C6.37189 17.09 6.80048 16.9125 7.11648 16.5965C7.43247 16.2805 7.61 15.8519 7.61 15.405V9.48ZM17.09 13.035C17.09 12.5881 16.9125 12.1595 16.5965 11.8435C16.2805 11.5275 15.8519 11.35 15.405 11.35C14.9581 11.35 14.5295 11.5275 14.2135 11.8435C13.8975 12.1595 13.72 12.5881 13.72 13.035V15.405C13.72 15.8519 13.8975 16.2805 14.2135 16.5965C14.5295 16.9125 14.9581 17.09 15.405 17.09C15.8519 17.09 16.2805 16.9125 16.5965 16.5965C16.9125 16.2805 17.09 15.8519 17.09 15.405V13.035Z" fill="black" stroke="black"/>
</svg>
