<svg width="20" height="23" viewBox="0 0 20 23" fill="none" xmlns="http://www.w3.org/2000/svg">
<path d="M8.3 20.5C8.46738 20.8044 8.71345 21.0583 9.01249 21.2352C9.31153 21.412 9.65258 21.5053 10 21.5053C10.3474 21.5053 10.6885 21.412 10.9875 21.2352C11.2866 21.0583 11.5326 20.8044 11.7 20.5M4 7.5C4 5.9087 4.63214 4.38258 5.75736 3.25736C6.88258 2.13214 8.4087 1.5 10 1.5C11.5913 1.5 13.1174 2.13214 14.2426 3.25736C15.3679 4.38258 16 5.9087 16 7.5C16 14.5 19 16.5 19 16.5H1C1 16.5 4 14.5 4 7.5Z" stroke="black" stroke-width="2" stroke-linecap="round" stroke-linejoin="round"/>
</svg>
