<svg width="24" height="24" viewBox="0 0 24 24" fill="none" xmlns="http://www.w3.org/2000/svg">
<path fill-rule="evenodd" clip-rule="evenodd" d="M6.58334 0.895828C6.79883 0.895828 7.00549 0.981431 7.15786 1.1338C7.31024 1.28618 7.39584 1.49284 7.39584 1.70833V2.53491C8.11301 2.52083 8.90275 2.52083 9.77159 2.52083H14.2273C15.0973 2.52083 15.887 2.52083 16.6042 2.53491V1.70833C16.6042 1.49284 16.6898 1.28618 16.8421 1.1338C16.9945 0.981431 17.2012 0.895828 17.4167 0.895828C17.6322 0.895828 17.8388 0.981431 17.9912 1.1338C18.1436 1.28618 18.2292 1.49284 18.2292 1.70833V2.60424C18.5108 2.62591 18.7777 2.65336 19.0298 2.68658C20.2994 2.85775 21.3275 3.21741 22.1389 4.02774C22.9493 4.83916 23.3089 5.86725 23.4801 7.13691C23.6458 8.37191 23.6458 9.94816 23.6458 11.9393V14.2273C23.6458 16.2185 23.6458 17.7958 23.4801 19.0297C23.3089 20.2994 22.9493 21.3275 22.1389 22.1389C21.3275 22.9492 20.2994 23.3089 19.0298 23.4801C17.7948 23.6458 16.2185 23.6458 14.2273 23.6458H9.77375C7.78259 23.6458 6.20526 23.6458 4.97134 23.4801C3.70167 23.3089 2.67359 22.9492 1.86217 22.1389C1.05184 21.3275 0.692172 20.2994 0.521005 19.0297C0.355255 17.7947 0.355255 16.2185 0.355255 14.2273V11.9393C0.355255 9.94816 0.355255 8.37083 0.521005 7.13691C0.692172 5.86725 1.05184 4.83916 1.86217 4.02774C2.67359 3.21741 3.70167 2.85775 4.97134 2.68658C5.22412 2.65336 5.49098 2.62591 5.77192 2.60424V1.70833C5.77192 1.49303 5.85738 1.28653 6.00951 1.13419C6.16165 0.981844 6.36804 0.896115 6.58334 0.895828ZM5.18584 4.29749C4.09709 4.44374 3.46875 4.71891 3.0105 5.17716C2.55225 5.63541 2.27709 6.26375 2.13084 7.3525C2.10628 7.53666 2.08534 7.7313 2.06801 7.93641H21.932C21.9147 7.7313 21.8937 7.5363 21.8692 7.35141C21.7229 6.26266 21.4478 5.63433 20.9895 5.17608C20.5313 4.71783 19.9029 4.44266 18.8131 4.29641C17.7005 4.14691 16.2326 4.14475 14.1667 4.14475H9.83334C7.76742 4.14475 6.30059 4.14799 5.18584 4.29749ZM1.97917 12C1.97917 11.0748 1.97917 10.2699 1.99326 9.5625H22.0068C22.0208 10.2699 22.0208 11.0748 22.0208 12V14.1667C22.0208 16.2326 22.0187 17.7005 21.8692 18.8142C21.7229 19.9029 21.4478 20.5312 20.9895 20.9895C20.5313 21.4477 19.9029 21.7229 18.8131 21.8692C17.7005 22.0187 16.2326 22.0208 14.1667 22.0208H9.83334C7.76742 22.0208 6.30059 22.0187 5.18584 21.8692C4.09709 21.7229 3.46875 21.4477 3.0105 20.9895C2.55225 20.5312 2.27709 19.9029 2.13084 18.8131C1.98134 17.7005 1.97917 16.2326 1.97917 14.1667V12Z" fill="black"/>
</svg>
