<svg width="28" height="20" viewBox="0 0 28 20" fill="none" xmlns="http://www.w3.org/2000/svg">
<path d="M13.8571 6.14286L21.5714 13.8571M21.5714 6.14286L13.8571 13.8571M11.2856 1C10.6467 1.00004 10.0307 1.23791 9.55764 1.66729L1.42164 9.04729C1.28885 9.1678 1.18274 9.31476 1.11013 9.47873C1.03751 9.64269 1 9.82003 1 9.99936C1 10.1787 1.03751 10.356 1.11013 10.52C1.18274 10.684 1.28885 10.8309 1.42164 10.9514L9.55764 18.3327C10.0307 18.7621 10.6467 19 11.2856 19H24.1428C24.8248 19 25.4788 18.7291 25.9611 18.2468C26.4433 17.7646 26.7142 17.1106 26.7142 16.4286V3.57143C26.7142 2.88944 26.4433 2.23539 25.9611 1.75315C25.4788 1.27092 24.8248 1 24.1428 1H11.2856Z" stroke="black" stroke-width="2" stroke-linecap="round" stroke-linejoin="round"/>
</svg>
