<svg width="20" height="16" viewBox="0 0 20 16" fill="none" xmlns="http://www.w3.org/2000/svg">
<path d="M2.9327 15.2731H17.0673C18.9512 15.2731 19.8981 14.345 19.8981 12.4881V2.90578C19.8981 1.04885 18.9512 0.11116 17.0673 0.11116H2.9327C1.04885 0.11116 0.101929 1.04885 0.101929 2.90578V12.4881C0.101929 14.345 1.04847 15.2731 2.9327 15.2731ZM1.55347 2.98732C1.55347 2.04962 2.05847 1.56308 2.95962 1.56308H17.0492C17.9416 1.56308 18.4466 2.04962 18.4466 2.98732V3.74424H1.55347V2.98732ZM2.95962 13.8227C2.05808 13.8227 1.55347 13.3446 1.55347 12.4073V5.79039H18.4466V12.4069C18.4466 13.3442 17.9416 13.8223 17.0492 13.8223L2.95962 13.8227ZM3.99616 11.1539H6.20501C6.73693 11.1539 7.08847 10.8023 7.08847 10.2885V8.62078C7.08847 8.11616 6.73693 7.75539 6.20501 7.75539H3.99616C3.46424 7.75539 3.1127 8.11616 3.1127 8.62078V10.2885C3.1127 10.8023 3.46424 11.1539 3.99616 11.1539Z" fill="black"/>
</svg>
