<svg width="24" height="24" viewBox="0 0 24 24" fill="none" xmlns="http://www.w3.org/2000/svg">
<path d="M15.1429 1H21.4286C21.8453 1 22.245 1.16556 22.5397 1.46026C22.8344 1.75496 23 2.15466 23 2.57143V8.85714C23 9.27391 22.8344 9.67361 22.5397 9.96831C22.245 10.263 21.8453 10.4286 21.4286 10.4286H15.1429C14.7261 10.4286 14.3264 10.263 14.0317 9.96831C13.737 9.67361 13.5714 9.27391 13.5714 8.85714V2.57143C13.5714 2.15466 13.737 1.75496 14.0317 1.46026C14.3264 1.16556 14.7261 1 15.1429 1ZM2.57143 1H8.85714C9.27391 1 9.67361 1.16556 9.96831 1.46026C10.263 1.75496 10.4286 2.15466 10.4286 2.57143V8.85714C10.4286 9.27391 10.263 9.67361 9.96831 9.96831C9.67361 10.263 9.27391 10.4286 8.85714 10.4286H2.57143C2.15466 10.4286 1.75496 10.263 1.46026 9.96831C1.16556 9.67361 1 9.27391 1 8.85714V2.57143C1 2.15466 1.16556 1.75496 1.46026 1.46026C1.75496 1.16556 2.15466 1 2.57143 1ZM15.1429 13.5714H21.4286C21.8453 13.5714 22.245 13.737 22.5397 14.0317C22.8344 14.3264 23 14.7261 23 15.1429V21.4286C23 21.8453 22.8344 22.245 22.5397 22.5397C22.245 22.8344 21.8453 23 21.4286 23H15.1429C14.7261 23 14.3264 22.8344 14.0317 22.5397C13.737 22.245 13.5714 21.8453 13.5714 21.4286V15.1429C13.5714 14.7261 13.737 14.3264 14.0317 14.0317C14.3264 13.737 14.7261 13.5714 15.1429 13.5714ZM2.57143 13.5714H8.85714C9.27391 13.5714 9.67361 13.737 9.96831 14.0317C10.263 14.3264 10.4286 14.7261 10.4286 15.1429V21.4286C10.4286 21.8453 10.263 22.245 9.96831 22.5397C9.67361 22.8344 9.27391 23 8.85714 23H2.57143C2.15466 23 1.75496 22.8344 1.46026 22.5397C1.16556 22.245 1 21.8453 1 21.4286V15.1429C1 14.7261 1.16556 14.3264 1.46026 14.0317C1.75496 13.737 2.15466 13.5714 2.57143 13.5714Z" fill="black" stroke="black" stroke-linecap="round" stroke-linejoin="round"/>
</svg>
