<svg width="22" height="21" viewBox="0 0 22 21" fill="none" xmlns="http://www.w3.org/2000/svg">
<path d="M16.414 8.414C17 7.828 17 6.886 17 5C17 3.114 17 2.172 16.414 1.586M16.414 8.414C15.828 9 14.886 9 13 9H9C7.114 9 6.172 9 5.586 8.414M16.414 1.586C15.828 1 14.886 1 13 1H9C7.114 1 6.172 1 5.586 1.586M5.586 1.586C5 2.172 5 3.114 5 5C5 6.886 5 7.828 5.586 8.414M12 5C12 5.26522 11.8946 5.51957 11.7071 5.70711C11.5196 5.89464 11.2652 6 11 6C10.7348 6 10.4804 5.89464 10.2929 5.70711C10.1054 5.51957 10 5.26522 10 5C10 4.73478 10.1054 4.48043 10.2929 4.29289C10.4804 4.10536 10.7348 4 11 4C11.2652 4 11.5196 4.10536 11.7071 4.29289C11.8946 4.48043 12 4.73478 12 5Z" stroke="black" stroke-width="1.5"/>
<path d="M17 4C16.2044 4 15.4413 3.68393 14.8787 3.12132C14.3161 2.55871 14 1.79565 14 1M17 6C16.2044 6 15.4413 6.31607 14.8787 6.87868C14.3161 7.44129 14 8.20435 14 9M5 4C5.79565 4 6.55871 3.68393 7.12132 3.12132C7.68393 2.55871 8 1.79565 8 1M5 6C5.79565 6 6.55871 6.31607 7.12132 6.87868C7.68393 7.44129 8 8.20435 8 9M4 18.388H6.26C7.27 18.388 8.293 18.494 9.276 18.696C11.0311 19.0554 12.8367 19.0954 14.606 18.814C15.474 18.674 16.326 18.459 17.098 18.087C17.794 17.75 18.647 17.277 19.22 16.746C19.792 16.216 20.388 15.349 20.81 14.671C21.174 14.089 20.998 13.376 20.424 12.943C20.1013 12.7088 19.7127 12.5827 19.314 12.5827C18.9153 12.5827 18.5267 12.7088 18.204 12.943L16.397 14.308C15.697 14.838 14.932 15.325 14.021 15.47C13.911 15.4873 13.796 15.503 13.676 15.517M13.676 15.517L13.566 15.529M13.676 15.517C13.836 15.4736 13.9828 15.3912 14.103 15.277C14.2539 15.1468 14.3772 14.9876 14.4655 14.8089C14.5538 14.6302 14.6054 14.4356 14.6171 14.2366C14.6289 14.0377 14.6006 13.8383 14.5339 13.6505C14.4672 13.4626 14.3636 13.2901 14.229 13.143C14.0987 12.9983 13.9469 12.8746 13.779 12.776C10.982 11.107 6.629 12.378 4 14.243M13.676 15.517C13.6399 15.5251 13.603 15.5291 13.566 15.529M13.566 15.529C12.9629 15.5894 12.3554 15.5908 11.752 15.533" stroke="black" stroke-width="1.5" stroke-linecap="round"/>
<path d="M4 13.5C4 12.6716 3.32843 12 2.5 12C1.67157 12 1 12.6716 1 13.5V18.5C1 19.3284 1.67157 20 2.5 20C3.32843 20 4 19.3284 4 18.5V13.5Z" stroke="black" stroke-width="1.5"/>
</svg>
