<svg width="20" height="20" viewBox="0 0 20 20" fill="none" xmlns="http://www.w3.org/2000/svg">
<path d="M4.234 14.925C4.99494 12.3991 6.36939 10.1008 8.2347 8.23533C10.1 6.36985 12.3981 4.99518 14.924 4.23401M9 13L9.354 13.354M13 9.00001L13.354 9.35401M14 14L14.354 14.354M5.582 5.58001C7.64075 3.52172 10.1503 1.97082 12.912 1.05001C13.448 0.870005 14.015 1.18601 14.177 1.72801L18.956 17.656C19.0102 17.8363 19.0146 18.0279 18.9687 18.2105C18.9227 18.3931 18.8281 18.5598 18.695 18.693C18.5618 18.8261 18.3951 18.9207 18.2125 18.9667C18.0299 19.0126 17.8383 19.0082 17.658 18.954L1.73 14.176C1.188 14.014 0.872 13.447 1.051 12.91C1.97181 10.1483 3.52372 7.63876 5.582 5.58001Z" stroke="black" stroke-width="1.5" stroke-linecap="round" stroke-linejoin="round"/>
</svg>
