<svg width="22" height="22" viewBox="0 0 22 22" fill="none" xmlns="http://www.w3.org/2000/svg">
<path d="M19.38 2.46L15 1C15 2.06087 14.5786 3.07828 13.8284 3.82843C13.0783 4.57857 12.0609 5 11 5C9.93914 5 8.92173 4.57857 8.17158 3.82843C7.42144 3.07828 7.00001 2.06087 7.00001 1L2.62001 2.46C2.16739 2.61079 1.78359 2.91842 1.53786 3.32734C1.29214 3.73627 1.20069 4.21956 1.28001 4.69L1.86001 8.16C1.89809 8.39491 2.01869 8.60855 2.20015 8.76251C2.38161 8.91648 2.61203 9.00069 2.85001 9H5.00001V19C5.00001 20.1 5.90001 21 7.00001 21H15C15.5304 21 16.0391 20.7893 16.4142 20.4142C16.7893 20.0391 17 19.5304 17 19V9H19.15C19.388 9.00069 19.6184 8.91648 19.7999 8.76251C19.9813 8.60855 20.1019 8.39491 20.14 8.16L20.72 4.69C20.7993 4.21956 20.7079 3.73627 20.4622 3.32734C20.2164 2.91842 19.8326 2.61079 19.38 2.46Z" stroke="black" stroke-width="2" stroke-linecap="round" stroke-linejoin="round"/>
</svg>
