<svg width="23" height="23" viewBox="0 0 23 23" fill="none" xmlns="http://www.w3.org/2000/svg">
<path d="M6.11594 17V10.3333M11.4493 17V6.33333M16.7826 17V14.3333M19.4493 1H3.44927C2.74203 1 2.06375 1.28095 1.56366 1.78105C1.06356 2.28115 0.782608 2.95942 0.782608 3.66667V19.6667C0.782608 20.3739 1.06356 21.0522 1.56366 21.5523C2.06375 22.0524 2.74203 22.3333 3.44927 22.3333H19.4493C20.1565 22.3333 20.8348 22.0524 21.3349 21.5523C21.835 21.0522 22.1159 20.3739 22.1159 19.6667V3.66667C22.1159 2.95942 21.835 2.28115 21.3349 1.78105C20.8348 1.28095 20.1565 1 19.4493 1Z" stroke="black" stroke-linecap="round" stroke-linejoin="round"/>
</svg>
