<svg width="17" height="28" viewBox="0 0 17 28" fill="none" xmlns="http://www.w3.org/2000/svg">
<path d="M14 9.1H16.8C16.8 5.1282 12.943 3.3166 9.8 2.8994V0H7V2.8994C3.857 3.3166 0 5.1282 0 9.1C0 12.8884 3.7324 14.8582 7 15.302V22.26C4.9728 21.9086 2.8 20.8264 2.8 18.9H0C0 22.5246 3.395 24.6666 7 25.1104V28H9.8V25.102C12.943 24.6848 16.8 22.8718 16.8 18.9C16.8 14.9282 12.943 13.1166 9.8 12.6994V5.74C11.662 6.0746 14 7.0574 14 9.1ZM2.8 9.1C2.8 7.0574 5.138 6.0746 7 5.74V12.4586C5.0806 12.1044 2.8 11.0558 2.8 9.1ZM14 18.9C14 20.9426 11.662 21.9254 9.8 22.26V15.54C11.662 15.8746 14 16.8574 14 18.9Z" fill="black"/>
</svg>
