<svg width="23" height="22" viewBox="0 0 23 22" fill="none" xmlns="http://www.w3.org/2000/svg">
<path d="M21 6.12653H17.1631C17.2058 6.09043 17.2495 6.05543 17.2911 6.01715C17.6233 5.72203 17.891 5.36155 18.0775 4.95824C18.264 4.55493 18.3653 4.11748 18.375 3.67325C18.3894 3.18726 18.3043 2.70347 18.1249 2.25158C17.9455 1.79968 17.6757 1.38921 17.3319 1.04536C16.9882 0.701522 16.5778 0.431563 16.126 0.252062C15.6741 0.0725604 15.1904 -0.0126958 14.7044 0.00152703C14.26 0.0110994 13.8223 0.112307 13.4188 0.298816C13.0153 0.485324 12.6546 0.753118 12.3594 1.08543C11.9509 1.55898 11.6188 2.09331 11.375 2.66918C11.1312 2.09331 10.7991 1.55898 10.3906 1.08543C10.0954 0.753118 9.73472 0.485324 9.33121 0.298816C8.92771 0.112307 8.49005 0.0110994 8.04562 0.00152703C7.55964 -0.0126958 7.07587 0.0725604 6.62403 0.252062C6.17218 0.431563 5.76179 0.701522 5.41805 1.04536C5.07431 1.38921 4.80448 1.79968 4.62511 2.25158C4.44574 2.70347 4.36063 3.18726 4.375 3.67325C4.38472 4.11748 4.486 4.55493 4.67251 4.95824C4.85901 5.36155 5.12672 5.72203 5.45891 6.01715C5.50047 6.05325 5.54422 6.08825 5.58688 6.12653H1.75C1.28587 6.12653 0.840752 6.3109 0.512563 6.63909C0.184374 6.96728 0 7.4124 0 7.87653V11.3765C0 11.8407 0.184374 12.2858 0.512563 12.614C0.840752 12.9422 1.28587 13.1265 1.75 13.1265V20.1265C1.75 20.5907 1.93437 21.0358 2.26256 21.364C2.59075 21.6922 3.03587 21.8765 3.5 21.8765H19.25C19.7141 21.8765 20.1592 21.6922 20.4874 21.364C20.8156 21.0358 21 20.5907 21 20.1265V13.1265C21.4641 13.1265 21.9092 12.9422 22.2374 12.614C22.5656 12.2858 22.75 11.8407 22.75 11.3765V7.87653C22.75 7.4124 22.5656 6.96728 22.2374 6.63909C21.9092 6.3109 21.4641 6.12653 21 6.12653ZM13.6719 2.24481C13.8105 2.09187 13.9791 1.9692 14.1674 1.88451C14.3556 1.79981 14.5592 1.75491 14.7656 1.75262H14.8192C15.0611 1.75413 15.3003 1.80391 15.5227 1.89904C15.7451 1.99417 15.9463 2.13274 16.1145 2.30662C16.2827 2.4805 16.4145 2.68621 16.5021 2.91167C16.5898 3.13714 16.6316 3.37783 16.625 3.61965C16.6227 3.82603 16.5778 4.02971 16.4931 4.21792C16.4084 4.40613 16.2858 4.57482 16.1328 4.7134C15.0948 5.63215 13.3722 5.9559 12.3047 6.06965C12.4359 4.91137 12.7969 3.22809 13.6719 2.24481ZM6.66203 2.28418C7.00103 1.94522 7.46014 1.75379 7.93953 1.75153H7.99313C8.1995 1.75382 8.40318 1.79872 8.59139 1.88341C8.7796 1.96811 8.94829 2.09077 9.08688 2.24371C10.0045 3.28059 10.3283 4.99996 10.442 6.06309C9.37891 5.95371 7.65953 5.62559 6.62266 4.70793C6.46972 4.56935 6.34705 4.40066 6.26236 4.21245C6.17766 4.02424 6.13276 3.82056 6.13047 3.61418C6.12369 3.36835 6.16692 3.12369 6.25754 2.89507C6.34816 2.66644 6.48429 2.45861 6.65766 2.28418H6.66203ZM1.75 7.87653H10.5V11.3765H1.75V7.87653ZM3.5 13.1265H10.5V20.1265H3.5V13.1265ZM19.25 20.1265H12.25V13.1265H19.25V20.1265ZM21 11.3765H12.25V7.87653H21V11.3765Z" fill="black"/>
</svg>
