<svg width="24" height="24" viewBox="0 0 24 24" fill="none" xmlns="http://www.w3.org/2000/svg">
<path d="M14.9255 1H21.2112C21.6279 1 22.0276 1.16556 22.3223 1.46026C22.617 1.75496 22.7826 2.15466 22.7826 2.57143V8.85714C22.7826 9.27391 22.617 9.67361 22.3223 9.96831C22.0276 10.263 21.6279 10.4286 21.2112 10.4286H14.9255C14.5087 10.4286 14.109 10.263 13.8143 9.96831C13.5196 9.67361 13.354 9.27391 13.354 8.85714V2.57143C13.354 2.15466 13.5196 1.75496 13.8143 1.46026C14.109 1.16556 14.5087 1 14.9255 1ZM2.35404 1H8.63975C9.05652 1 9.45622 1.16556 9.75092 1.46026C10.0456 1.75496 10.2112 2.15466 10.2112 2.57143V8.85714C10.2112 9.27391 10.0456 9.67361 9.75092 9.96831C9.45622 10.263 9.05652 10.4286 8.63975 10.4286H2.35404C1.93727 10.4286 1.53757 10.263 1.24287 9.96831C0.948169 9.67361 0.782608 9.27391 0.782608 8.85714V2.57143C0.782608 2.15466 0.948169 1.75496 1.24287 1.46026C1.53757 1.16556 1.93727 1 2.35404 1ZM14.9255 13.5714H21.2112C21.6279 13.5714 22.0276 13.737 22.3223 14.0317C22.617 14.3264 22.7826 14.7261 22.7826 15.1429V21.4286C22.7826 21.8453 22.617 22.245 22.3223 22.5397C22.0276 22.8344 21.6279 23 21.2112 23H14.9255C14.5087 23 14.109 22.8344 13.8143 22.5397C13.5196 22.245 13.354 21.8453 13.354 21.4286V15.1429C13.354 14.7261 13.5196 14.3264 13.8143 14.0317C14.109 13.737 14.5087 13.5714 14.9255 13.5714ZM2.35404 13.5714H8.63975C9.05652 13.5714 9.45622 13.737 9.75092 14.0317C10.0456 14.3264 10.2112 14.7261 10.2112 15.1429V21.4286C10.2112 21.8453 10.0456 22.245 9.75092 22.5397C9.45622 22.8344 9.05652 23 8.63975 23H2.35404C1.93727 23 1.53757 22.8344 1.24287 22.5397C0.948169 22.245 0.782608 21.8453 0.782608 21.4286V15.1429C0.782608 14.7261 0.948169 14.3264 1.24287 14.0317C1.53757 13.737 1.93727 13.5714 2.35404 13.5714Z" stroke="black" stroke-linecap="round" stroke-linejoin="round"/>
</svg>
