<svg width="24" height="23" viewBox="0 0 24 23" fill="none" xmlns="http://www.w3.org/2000/svg">
<path d="M22.5652 20.4348V8.97823C22.5652 8.76899 22.5165 8.56262 22.4229 8.37547C22.3293 8.18832 22.1935 8.02552 22.0261 7.89997L12.5913 0.823886C12.358 0.648909 12.0742 0.554321 11.7826 0.554321C11.491 0.554321 11.2072 0.648909 10.9739 0.823886L1.53913 7.89997C1.37174 8.02552 1.23587 8.18832 1.14229 8.37547C1.04872 8.56262 1 8.76899 1 8.97823V20.4348C1 20.7922 1.142 21.135 1.39477 21.3878C1.64754 21.6406 1.99036 21.7826 2.34783 21.7826H7.73913C8.0966 21.7826 8.43942 21.6406 8.69219 21.3878C8.94495 21.135 9.08696 20.7922 9.08696 20.4348V16.3913C9.08696 16.0338 9.22896 15.691 9.48173 15.4382C9.73449 15.1855 10.0773 15.0435 10.4348 15.0435H13.1304C13.4879 15.0435 13.8307 15.1855 14.0835 15.4382C14.3363 15.691 14.4783 16.0338 14.4783 16.3913V20.4348C14.4783 20.7922 14.6203 21.135 14.873 21.3878C15.1258 21.6406 15.4686 21.7826 15.8261 21.7826H21.2174C21.5749 21.7826 21.9177 21.6406 22.1704 21.3878C22.4232 21.135 22.5652 20.7922 22.5652 20.4348Z" stroke="black" stroke-linecap="round" stroke-linejoin="round"/>
</svg>
