<svg width="24" height="24" viewBox="0 0 24 24" fill="none" xmlns="http://www.w3.org/2000/svg">
<path d="M22.5652 21.4348V9.97823C22.5652 9.76899 22.5165 9.56262 22.4229 9.37547C22.3293 9.18832 22.1935 9.02552 22.0261 8.89997L12.5913 1.82389C12.358 1.64891 12.0742 1.55432 11.7826 1.55432C11.491 1.55432 11.2072 1.64891 10.9739 1.82389L1.53913 8.89997C1.37174 9.02552 1.23587 9.18832 1.14229 9.37547C1.04872 9.56262 1 9.76899 1 9.97823V21.4348C1 21.7922 1.142 22.135 1.39477 22.3878C1.64754 22.6406 1.99036 22.7826 2.34783 22.7826H7.73913C8.0966 22.7826 8.43942 22.6406 8.69219 22.3878C8.94495 22.135 9.08696 21.7922 9.08696 21.4348V17.3913C9.08696 17.0338 9.22896 16.691 9.48173 16.4382C9.73449 16.1855 10.0773 16.0435 10.4348 16.0435H13.1304C13.4879 16.0435 13.8307 16.1855 14.0835 16.4382C14.3363 16.691 14.4783 17.0338 14.4783 17.3913V21.4348C14.4783 21.7922 14.6203 22.135 14.873 22.3878C15.1258 22.6406 15.4686 22.7826 15.8261 22.7826H21.2174C21.5749 22.7826 21.9177 22.6406 22.1704 22.3878C22.4232 22.135 22.5652 21.7922 22.5652 21.4348Z" stroke="black" stroke-width="2" stroke-linecap="round" stroke-linejoin="round"/>
</svg>
