<svg width="24" height="23" viewBox="0 0 24 23" fill="none" xmlns="http://www.w3.org/2000/svg">
<path d="M22.5652 20.8804V9.42391C22.5652 9.21467 22.5165 9.0083 22.4229 8.82115C22.3293 8.63399 22.1935 8.4712 22.0261 8.34565L12.5913 1.26956C12.358 1.09459 12.0742 1 11.7826 1C11.491 1 11.2072 1.09459 10.9739 1.26956L1.53913 8.34565C1.37174 8.4712 1.23587 8.63399 1.14229 8.82115C1.04872 9.0083 1 9.21467 1 9.42391V20.8804C1 21.2379 1.142 21.5807 1.39477 21.8335C1.64754 22.0863 1.99036 22.2283 2.34783 22.2283H7.73913C8.0966 22.2283 8.43942 22.0863 8.69219 21.8335C8.94495 21.5807 9.08696 21.2379 9.08696 20.8804V16.837C9.08696 16.4795 9.22896 16.1367 9.48173 15.8839C9.73449 15.6311 10.0773 15.4891 10.4348 15.4891H13.1304C13.4879 15.4891 13.8307 15.6311 14.0835 15.8839C14.3363 16.1367 14.4783 16.4795 14.4783 16.837V20.8804C14.4783 21.2379 14.6203 21.5807 14.873 21.8335C15.1258 22.0863 15.4686 22.2283 15.8261 22.2283H21.2174C21.5749 22.2283 21.9177 22.0863 22.1704 21.8335C22.4232 21.5807 22.5652 21.2379 22.5652 20.8804Z" fill="black" stroke="black" stroke-linecap="round" stroke-linejoin="round"/>
</svg>
