<svg width="24" height="24" viewBox="0 0 24 24" fill="none" xmlns="http://www.w3.org/2000/svg">
<path d="M4.7992 17H14.4003C14.6042 17.0003 14.8003 17.0979 14.9486 17.2728C15.0969 17.4478 15.1861 17.687 15.1981 17.9414C15.21 18.1958 15.1438 18.4464 15.0129 18.6418C14.882 18.8373 14.6964 18.9629 14.4939 18.993L14.4003 19H4.7992C4.59528 18.9997 4.39913 18.9021 4.25085 18.7272C4.10256 18.5522 4.01333 18.313 4.00138 18.0586C3.98943 17.8042 4.05566 17.5536 4.18655 17.3582C4.31743 17.1627 4.50309 17.0371 4.70559 17.007L4.7992 17ZM4.7992 11H19.2008C19.4047 11.0003 19.6009 11.0979 19.7492 11.2728C19.8974 11.4478 19.9867 11.687 19.9986 11.9414C20.0106 12.1958 19.9443 12.4464 19.8135 12.6418C19.6826 12.8373 19.4969 12.9629 19.2944 12.993L19.2008 13H4.7992C4.59528 12.9997 4.39913 12.9021 4.25085 12.7272C4.10256 12.5522 4.01333 12.313 4.00138 12.0586C3.98943 11.8042 4.05566 11.5536 4.18655 11.3582C4.31743 11.1627 4.50309 11.0371 4.70559 11.007L4.7992 11ZM4.7992 5H16.8005C17.0045 5.00028 17.2006 5.09788 17.3489 5.27285C17.4972 5.44782 17.5864 5.68695 17.5984 5.94139C17.6103 6.19584 17.5441 6.44638 17.4132 6.64183C17.2823 6.83729 17.0966 6.9629 16.8941 6.993L16.8005 7H4.7992C4.59528 6.99972 4.39913 6.90212 4.25085 6.72715C4.10256 6.55218 4.01333 6.31305 4.00138 6.05861C3.98943 5.80416 4.05566 5.55362 4.18655 5.35817C4.31743 5.16271 4.50309 5.0371 4.70559 5.007L4.7992 5Z" fill="black"/>
</svg>
